<mxfile host="65bd71144e">
    <diagram id="F8l2ymyzNLb7VM1Xm_ZQ" name="PÃ¡gina-1">
        <mxGraphModel dx="1451" dy="795" grid="1" gridSize="10" guides="1" tooltips="1" connect="1" arrows="1" fold="1" page="1" pageScale="1" pageWidth="827" pageHeight="583" math="0" shadow="0">
            <root>
                <mxCell id="0"/>
                <mxCell id="1" parent="0"/>
                <mxCell id="4" value="" style="rounded=1;whiteSpace=wrap;html=1;" vertex="1" parent="1">
                    <mxGeometry x="230" y="50" width="760" height="247" as="geometry"/>
                </mxCell>
                <mxCell id="5" value="" style="rounded=1;whiteSpace=wrap;html=1;fillColor=light-dark(#FFFFFF,#131415);" vertex="1" parent="1">
                    <mxGeometry x="300" y="62" width="120" height="230" as="geometry"/>
                </mxCell>
                <mxCell id="3" value="" style="shape=image;verticalLabelPosition=bottom;labelBackgroundColor=default;verticalAlign=top;aspect=fixed;imageAspect=0;image=data:image/svg+xml,PHN2ZyB4bWxucz0iaHR0cDovL3d3dy53My5vcmcvMjAwMC9zdmciIHZpZXdCb3g9IjAgMCAyMDAgMzAwIiBoZWlnaHQ9IjMwMCIgd2lkdGg9IjIwMCI+CiAgPHBhdGggc3Ryb2tlLXdpZHRoPSIyIiBzdHJva2U9IiMwMDAiIGZpbGw9IiNlOTFlNjMiIGQ9Ik0xMDAgMTAgJiMxMDsgICAgICAgICAgIEMxMTAgMzAsIDEyMCA2MCwgMTAwIDgwICYjMTA7ICAgICAgICAgICBDODAgNjAsIDkwIDMwLCAxMDAgMTAgJiMxMDsgICAgICAgICAgIE0xMDAgODAgJiMxMDsgICAgICAgICAgIEM3MCAxMDAsIDUwIDE1MCwgNDAgMjUwICYjMTA7ICAgICAgICAgICBMMTYwIDI1MCAmIzEwOyAgICAgICAgICAgQzE1MCAxNTAsIDEzMCAxMDAsIDEwMCA4MCAmIzEwOyAgICAgICAgICAgWiIvPgo8L3N2Zz4=;" vertex="1" parent="1">
                    <mxGeometry x="300" y="70" width="113.34" height="170" as="geometry"/>
                </mxCell>
                <mxCell id="7" value="" style="shape=image;verticalLabelPosition=bottom;labelBackgroundColor=default;verticalAlign=top;aspect=fixed;imageAspect=0;image=data:image/png,iVBORw0KGgoAAAANSUhEUgAAAEYAAAAqCAIAAACBerryAAAAA3NCSVQICAjb4U/gAAAGRUlEQVRoQ+1YaU9cVRhmGGZfYDYoy7BMU7ZCp4C1E5eiaOIngbTVmhqNtjVp/BF+8UfYL8buGlM1xWhd2loabW07YCtYGNYZaAdmAzo7F6b4jEdvJ/feOTNTSokEckPuvMtzznPe97znvFdUXrU1b2P95W8sOkk2m5T+DzEteIxJilUGaWmztLRJWlwr1paKNSUASYQ8ieAM4x1hZgaZmYFEJPAYyE/ERZRTeQAZRe2rym0d0rJmyvCMeyA6ejk2cnFdiIm1RXrK5FJV8prntbbDmpY3SVigWoyGPBODi7GQqtCYagkDebWtQFe5wkSXF6azxH9SZtlSUjV1Fb34oXRLIzuwb9oxdO3bYMA9P+sM+WdMlXWcOUl0lbJy68pSfMnreFLTzQYnK0rgo7UdEmuKUxEHe7/Cz6P797h9D/x+n0yp4cQK2nyZWlpct8LEniarzOUhmW+73xOrTal8EBz8rKioOLqvvcxY9NGxnpmRPpOZGyjYwBHuiYg/PvkbfY1bW1t2tbUaDAaNWh2LxyORyOjY+A8//sQwDN2Ro80QJdQD7J/UfGP9ZycGHj7MO9Rpq6veYh9yTbm9TDSsK63mD49YiaRK5l7/ylKMr4VEp9N9cPj952y78SKXyUQikVQiUalUleYK645mh2MkGhN2FETLQEnV1Il6wPdMLDGgxDCLtZbKmlLdM41VZy7cjAYDojyR1ljGt8e+SoR9zOxffBUkB97Yv9Viwcv45GRfX/8te5/X59NqtUqFAk9JSXH/H7cFHQWFNEoIUaHtCFvfUv0LJDKUBNS66YXlfe2NGpW8zFT0i92BhEzHKl+qijuvCwYqEAg0NW0/fuLUxUuXJyads7Oe8fGJm7fsDQ31SEK9Xu90uebm5gUJ8IU0SvKq3Zq2g6k+qNqID3mURQb/9EgwEt9qLkGgkH50VlganMLLc07+JIKhUDIyXm+q6iHSOi+voT65Pz0er8s1xXcUlNDKA+4HrM99R989h50PAZKfnOvtaK2BqrPd6vYvHDt3NXDPoTGWag3cDARgbOwKHwSSaDTKl8/PLxAhAsXXppNQKRXXEjekE+GDOPCB3nmthRWiAOIdrJy3r6j1ZeV1bSjurBYXKL47RaLX64g2HApRzDgqGiXc34g1QoEXHEFkxnR0llUs4gjPuQ0VdSBGXFhAOgKr3WndQd7vDg9n6QIzKqV/7qP4Iyvd0/snjiBkV0b0zj1WWLJJ+IjSf4AZEWCw02qtrqrCy92h4fv3k8dgln80SiwEdgUet8+NIxUTzRgr5GdnezJF7XddeJC3/H1Fn5/FUtPd9TpsHgQfnPv6G7oxR0trAdEvsNYkUAhRRj6pA5C9R/IW8lRAyizB5923Dyrk8ng8fvbzL3GNoBjzVbQoof8pKCwnPmRaZaZCPgRFQuxxqyA2AKQYE1VbW+ve7q4CsXhpefn4ydM4kTK6cAxoUUI/x1qX1ye3OEpZT++dXMdg7VMBBUEaG+r37+0Gn0WGOX3m7KTTKWhGF1IpzQyyzmQ74adgHU83Bi7pUEmVamKAozadJeS4+OBmlC/KX04kTp0+O+x4tKAUL76KTmkA/SnHxz7k5KOkk6A2QEVqA6DQwKezlEgkB986IJfLYfDd9xdGx8bSWWaU0yihzUa/zUIYK5MHJXLP7fv3UOejQ8V5YENKC6AoffsrHS9vKUmeGT9funzt+u985OwltPIAFHw/kJnbFJYX8I52CNci1AmkEyf9QKPn6h1SsjljkyYqNvEroNJNCyGyPbsL2lmPBzfXdGZZyjNQwrpGBs5LTdvIfRzzw83oyMcnKeipNyBLy0vIOtRugFBCVF9Xq1AogIlr+PbGBkFw19RUOJxVNc9ACejoRoM3jMlGXW0ympO5F/S7SVfLjg0aMoUGnRJ7UWBVaJOCN47TW1qzuYLYowvEI0jp089OjIyOCqo4wsyU4BAZPI//6LdlmhJMmj/vdCMhPuBD3NPZQK5UKinaXFU5fMfDRwhVcxfZV9kMg/2DfKPHJxucXG1oLSAHC1/k8P0AiYT+VLDVZe1Rr0P9X4Ttp57mhyF29ByixPpsqA/IuebAutjTjtp1mdDqB92ktPo1XHuEzSit/RqvfoTNKK1+DdceYTNKa7/Gqx/hbxRKmz0aeX6hAAAAAElFTkSuQmCC;" vertex="1" parent="1">
                    <mxGeometry x="304.71" y="250" width="33.33" height="20" as="geometry"/>
                </mxCell>
                <mxCell id="8" value="" style="shape=image;verticalLabelPosition=bottom;labelBackgroundColor=default;verticalAlign=top;aspect=fixed;imageAspect=0;image=data:image/png,iVBORw0KGgoAAAANSUhEUgAAADcAAAAuCAIAAAADYBZCAAAAA3NCSVQICAjb4U/gAAACxUlEQVRYR+2Yv08bMRTHScsWqUJVrkulEtQFLiOkI2m3CrYSKqTuIMqfgIQi1O6RohDRvVJVfvwLcMlYOnLpmOvIZeXW9ptaPKw75POzjcpwJ4QS+/n54+/ze3au9Hz25dSDfx49eMIJYEHpLkyFlu60nHbiyvO89ea7N43lq3jydHtf8N+JZ+Hk8ZOZp5bugHjQac9VZ+GnXC4/87x6fTGKojgeW3qm4Q725c72ZooGoB+3t1whwo8DyprvZ4EAWvMXsu1mLbaUCLc88WUY0lfsVDOm7ChbStkjUufo+JRasABXcrqkBN9lOCQ5EfRGYzkrjEGLLaVccYAFAllO1KbXLkBtKf/pd7sXEeKreJzanam9+x+0xJTAoomR76KqUwsEbu3tGpDJQxxUdVTyV/WlG6d/zoNBkiQo6dQIA2iMdmNWB5TXSbK68lYQQLkwHAJxFEWlqRLlONrx/Lj4aQbKO8ffN9dyqyCCjkwHzVnQr3gVJJAgw4dxPP5+fGIAytAShx5pppxpEnQYIO6j6He1+kLkPlogLQQWa1B6SHcyclyzRENLshSZlEr5o29f8ZcGUX5nUOpfxuSTXYDiWFJi5HQy9mUY/qLpu73D86Cf4/umG6Ct/c+oRxR6zYFkxtASG58kyc2hFIcA5cKZUCJ7SAz96NNMBkNMKKmmYLBNiTZQlBFxOVWNd5gBIoYwKGX9sC81C5MZVmoUi7Lf2v/kZFauEwYlXMt3sDt/7nCn17TnUcpOEfRup605DZaHO4CmcdaMUdUxGEcwSialDj5gbsUFAnCoDL4/byl8ifv+EhOL1xjZFbNa1jc+6NuzI47ifNA7tDyX9fmEJS/i5D0IBtxDEgvDKMX2UKAbUuKGC6e5oOLlFq4psLc5Idn7UrHi++ti78v7Q1F4LigV4jC7Ci2ZginMCy0V4jC7Ci2ZginM/wI0BfPWEx4j+gAAAABJRU5ErkJggg==;" vertex="1" parent="1">
                    <mxGeometry x="309.42" y="270" width="23.91" height="20" as="geometry"/>
                </mxCell>
                <mxCell id="9" value="Actor" style="shape=umlActor;verticalLabelPosition=bottom;verticalAlign=top;html=1;outlineConnect=0;" vertex="1" parent="1">
                    <mxGeometry x="30" y="160" width="30" height="60" as="geometry"/>
                </mxCell>
                <mxCell id="10" value="" style="endArrow=classic;html=1;" edge="1" parent="1" source="9" target="8">
                    <mxGeometry width="50" height="50" relative="1" as="geometry">
                        <mxPoint x="480" y="300" as="sourcePoint"/>
                        <mxPoint x="530" y="250" as="targetPoint"/>
                    </mxGeometry>
                </mxCell>
            </root>
        </mxGraphModel>
    </diagram>
</mxfile>